<?xml version="1.0" encoding="utf-8"?>
<!-- Generator: Adobe Illustrator 27.4.0, SVG Export Plug-In . SVG Version: 6.00 Build 0)  -->
<svg version="1.1" id="Layer_2" xmlns="http://www.w3.org/2000/svg" xmlns:xlink="http://www.w3.org/1999/xlink" x="0px" y="0px"
	 viewBox="0 0 118.3 148.7" style="enable-background:new 0 0 118.3 148.7;" xml:space="preserve">
<style type="text/css">
	.st0{display:none;}
</style>
<path d="M19.8,51.8c0,0,2.7-6.4-2.7-10.9S0,49.1,0,49.1S5.9,15.3,41.8,2.7c0,0,30.7-9.1,46.7,6.4c0,0,6.2-5.6,18.4,15.6
	s1.6,55.6,1.6,55.6s12.8-1.1,9.3,12.2s-7.1,20-12.6,17.6c0,0,0.5,22.7-31.7,36.9c-6.8,3-20.9,1.5-23.9,0c-6.8-3.3-26.5-12.1-31.4-37
	c0,0-10.9-0.7-11.6-12.7S7.6,77.5,17.1,80c0,0-1.1-13.1,0.9-19.3S19.8,51.8,19.8,51.8z M19.2,85.4c-7.1-2.9-6.7,3.4-6.7,3.4
	s0.2,15.4,4.7,14.4s6.1,1.1,6.1,1.1c7.8,31.4,27.6,36,31.9,36.9c3.4,0.8,12.1,0.9,16.2-0.6c29.5-10.6,27.5-37.9,27.5-37.9
	c8.3,0.4,8.4,2.2,12-9.1c3.6-11.3-4.9-5.8-4.9-5.8c-7.8,1.6-6.4-1.3-6.4-1.3c1.8-12.7,1.3-32.2-6-40.4c-7.3-8.2-11.1-4.4-11.1-4.4
	C72.9,49.8,50.2,52,50.2,52s-11.1,2.7-19.3,9.3s-4.4,25.3-4.4,25.3S26.3,88.3,19.2,85.4z"/>
<path d="M70.7,73.9c0,0,4.2-6.5,14.4-5.4c6.9,0.8,8,4.3,7.9,6.4c0,1-0.9,1.8-1.9,1.6c-1.9-0.2-5.2-0.8-7.8-2.3
	c-1.8-1-3.7-1.5-5.8-1.4C75.9,73,73.7,73.3,70.7,73.9z"/>
<path d="M53.8,73.9c0,0-9.1-2.7-12.3,0.3c-3.2,3-8.2,3.5-9.4,1.7s2-6.2,5.1-6.9S50.6,67.1,53.8,73.9z"/>
<ellipse cx="79.7" cy="84.3" rx="6.8" ry="4.6"/>
<ellipse cx="43.9" cy="83.8" rx="6.8" ry="4.6"/>
<path d="M62.3,105.4c2.1-0.4,3.7-1.1,5.7-2.3c0.3-0.2,0.6,0.1,0.6,0.4c-0.7,3.6-4.6,6.1-8.3,6.1c-3.8,0-7.1-2.6-8.3-6
	c-0.1-0.3,0.2-0.6,0.5-0.4C54.1,104,58.2,106.1,62.3,105.4z"/>
<path d="M40.8,116.9l38.9,0.2c-2.4,6.6-7.5,9.6-7.5,9.6s-3.1,2.9-13.1,2.6c-12.6-0.4-18.1-11.5-18.1-11.5L40.8,116.9z M47.8,119.8
	c0,0,2.3,6.3,12.6,6.3c10,0,12.5-6,12.5-6L47.8,119.8z"/>
<path class="st0" d="M314.2,259c0,0-5.7-5.1-13.9-6.4c5.8,2.6,10.5,5.2,13.1,7.8l-7.2-2.5l6.4,5.2l-9.2-2.1l9.1,4.3
	c-5-1.1-10.2-1.2-15.4-0.4c5.8,0.5,11.1,1.3,15.1,2.8l-5.3,2.6h4.7l-6.5,3.6l6.4-0.7c0,0-4.7,5.2-7.3,4.9c0,0,3.6,1,6.2-0.9
	c0,0-2.9,4.6-4.4,5l5.8-2.4l-3.9,5.9l4.4-2.3l-4.5,5.9l4.8-2.9l-2.3,3.4c0,0,2.7-1.9,4.8-1.3l-1.6-2.9h2.2l-2.6-4.1l2.6,0.7l-2.7-4
	l1.4-2.4l-1.3-1.7l2.1-0.9l-1.9-3l2.7,1.3c0,0-1.5-3.3-1.5-3.5s1.9-0.1,1.9-0.1l-1.8-3.1l3-1l-1.3-2.3c0,0,2.2,0.2,2-0.4
	c-0.2-0.6-2.8-2.5-2.8-2.5l-1.6-1.6V259z"/>
</svg>
