<?xml version="1.0" encoding="utf-8"?>
<!-- Generator: Adobe Illustrator 27.4.1, SVG Export Plug-In . SVG Version: 6.00 Build 0)  -->
<svg version="1.1" id="Layer_1" xmlns="http://www.w3.org/2000/svg" xmlns:xlink="http://www.w3.org/1999/xlink" x="0px" y="0px"
	 viewBox="0 0 404.5 74.3" style="enable-background:new 0 0 404.5 74.3;" xml:space="preserve">
<path d="M9.9,25.9c0,0,1.4-3.2-1.4-5.4S0,24.5,0,24.5S3,7.6,20.9,1.3c0,0,15.4-4.6,23.4,3.2c0,0,3.1-2.8,9.2,7.8s0.8,27.8,0.8,27.8
	s6.4-0.5,4.7,6.1s-3.5,10-6.3,8.8c0,0,0.2,11.4-15.9,18.5c-3.4,1.5-10.5,0.8-12,0C21.4,71.8,11.5,67.4,9.1,55c0,0-5.4-0.3-5.8-6.3
	s0.5-9.9,5.3-8.7c0,0-0.6-6.5,0.4-9.6S9.9,25.9,9.9,25.9z M9.6,42.7c-3.6-1.5-3.3,1.7-3.3,1.7s0.1,7.7,2.3,7.2s3.1,0.5,3.1,0.5
	c3.9,15.7,13.8,18,15.9,18.5c1.7,0.4,6.1,0.4,8.1-0.3c14.8-5.3,13.8-19,13.8-19c4.2,0.2,4.2,1.1,6-4.5S53,43.9,53,43.9
	c-3.9,0.8-3.2-0.7-3.2-0.7c0.9-6.3,0.7-16.1-3-20.2s-5.5-2.2-5.5-2.2C36.5,24.9,25.1,26,25.1,26s-5.6,1.4-9.6,4.6
	c-4.1,3.3-2.2,12.6-2.2,12.6S13.1,44.1,9.6,42.7z"/>
<path d="M35.3,36.9c0,0,2.1-3.2,7.2-2.7c3.5,0.4,4,2.2,4,3.2c0,0.5-0.5,0.9-1,0.8c-1-0.1-2.6-0.4-3.9-1.2c-0.9-0.5-1.8-0.8-2.9-0.7
	C38,36.5,36.8,36.6,35.3,36.9z"/>
<path d="M26.9,36.9c0,0-4.6-1.3-6.1,0.2c-1.6,1.5-4.1,1.8-4.7,0.8s1-3.1,2.5-3.5S25.3,33.5,26.9,36.9z"/>
<ellipse cx="39.8" cy="42.1" rx="3.4" ry="2.3"/>
<ellipse cx="22" cy="41.9" rx="3.4" ry="2.3"/>
<path d="M31.1,52.7c1.1-0.2,1.9-0.5,2.9-1.2c0.2-0.1,0.3,0,0.3,0.2c-0.3,1.8-2.3,3-4.1,3c-1.9,0-3.5-1.3-4.1-3
	c0-0.2,0.1-0.3,0.2-0.2C27,52,29.1,53,31.1,52.7z"/>
<path d="M20.4,58.4l19.4,0.1c-1.2,3.3-3.8,4.8-3.8,4.8s-1.5,1.5-6.5,1.3c-6.3-0.2-9-5.8-9-5.8L20.4,58.4z M23.9,59.9
	c0,0,1.1,3.2,6.3,3.2c5,0,6.2-3,6.2-3L23.9,59.9z"/>
<g>
	<path d="M68.9,24.7c1.1-0.7,2.8-1.4,5.2-2.2c2.4-0.8,5-1.6,8.1-2.3c3-0.8,6.2-1.6,9.6-2.3c3.4-0.7,6.6-1.4,9.6-2
		c3.1-0.6,5.8-1.1,8.3-1.4c2.4-0.4,4.3-0.6,5.5-0.6c0.5,0,1.1,0.1,1.8,0.4c0.7,0.2,1.4,0.5,1.9,0.9c0.5,0.3,0.7,0.7,0.7,1
		c0,0.3-0.6,0.5-1.7,0.6c-1.3,0.1-2.9,0.3-4.6,0.6c-1.8,0.3-3.7,0.7-5.8,1.2c-2.1,0.5-4.3,1-6.7,1.6c-2.4,0.6-4.8,1.2-7.2,1.9
		c0.5,0.5,0.9,1.1,1.2,1.9c0.3,0.8,0.3,1.4,0.1,1.9c-0.8,1.4-1.9,3.1-3.3,5.1c-1.4,2-2.9,4.2-4.5,6.5c-1.6,2.3-3.3,4.7-4.9,7.1
		c-1.7,2.4-3.2,4.8-4.7,7c-1.4,2.2-2.7,4.3-3.7,6.2c-1,1.9-1.7,3.4-2,4.6c-0.2,0.9-0.6,1.2-1,1c-0.4-0.2-0.9-0.6-1.3-1.3
		c-0.5-0.7-0.8-1.5-1.2-2.5c-0.3-1-0.5-1.8-0.4-2.4c0-0.4,0.6-1.4,1.5-3c1-1.6,2.2-3.4,3.7-5.6c1.5-2.2,3.2-4.5,5-7.1
		c1.8-2.5,3.6-5,5.3-7.4c1.7-2.4,3.3-4.6,4.8-6.7c1.4-2,2.5-3.6,3.2-4.8c-2.2,0.6-4.4,1.3-6.6,2c-2.2,0.7-4.3,1.4-6.3,2.1
		c-2,0.7-3.9,1.4-5.6,2.1c-1.8,0.7-3.4,1.4-4.8,2c-0.5,0.3-0.9,0.2-1.1-0.3c-0.2-0.5-0.2-1.1-0.1-1.9c0.1-0.7,0.3-1.5,0.7-2.2
		C68,25.5,68.4,25,68.9,24.7z"/>
	<path d="M106.8,26.1c0.3-0.3,0.7-0.5,1.3-0.4s1.1,0.2,1.5,0.5c0.5,0.3,0.9,0.6,1.1,1c0.3,0.4,0.3,0.8,0.1,1.1
		c-0.5,0.7-1.4,1.7-2.5,3c-1.1,1.3-2.3,2.6-3.6,4.1c-1.3,1.5-2.6,3-3.9,4.5c-1.3,1.5-2.4,3-3.4,4.3s-1.7,2.4-2.1,3.3
		c-0.5,0.9-0.5,1.4-0.1,1.6c0.2,0.1,0.9-0.2,1.9-1s2.2-1.8,3.7-3.1c1.4-1.3,3-2.7,4.6-4.3c1.7-1.6,3.3-3.1,4.8-4.6
		c1.5-1.5,2.9-2.8,4.1-4c1.2-1.2,2.1-2.1,2.7-2.6c0.3-0.3,0.7-0.3,1.2,0c0.5,0.3,0.9,0.7,1.3,1.3c0.4,0.5,0.6,1.1,0.7,1.8
		c0.1,0.7,0,1.2-0.4,1.6c-2.3,2.3-4.5,4.8-6.7,7.6c-2.2,2.7-4.3,5.6-6.3,8.6c-2,3-3.9,6-5.7,9c-1.8,3.1-3.4,6.1-4.9,9
		c-0.2,0.4-0.6,0.5-1,0.4c-0.4-0.1-0.8-0.5-1.2-1c-0.4-0.5-0.6-1.2-0.9-2c-0.2-0.8-0.2-1.8,0.1-2.8c0.2-0.6,0.8-1.6,1.8-3.1
		s2.2-3.2,3.6-5c1.4-1.9,2.9-3.8,4.5-5.8c1.6-2,3.1-3.9,4.5-5.6c1.4-1.7,2.6-3.2,3.6-4.4c1-1.2,1.6-1.9,1.7-2
		c-0.5,0.4-1.1,1.1-2,2.1c-0.9,1-1.9,2.1-3,3.3c-1.1,1.2-2.3,2.5-3.5,3.9c-1.2,1.4-2.4,2.6-3.5,3.7c-1.1,1.1-2.1,2-3,2.8
		c-0.9,0.7-1.5,1.1-1.9,1.1c-0.6,0-1.2-0.2-1.7-0.7c-0.5-0.5-0.9-1.2-1.2-2c-0.3-0.9-0.5-1.9-0.5-3.1c0-1.2,0.1-2.4,0.5-3.7
		c0.2-0.8,0.9-2,1.9-3.5c1-1.5,2.2-3.2,3.5-4.9c1.3-1.8,2.7-3.5,4.2-5.2C104.3,28.7,105.6,27.3,106.8,26.1z"/>
	<path d="M120.7,49.5c0.1,0.5,0.7,0.6,1.8,0c1.1-0.5,2.4-1.3,4-2.4c1.6-1.1,3.2-2.3,4.9-3.8c1.7-1.4,3.2-2.8,4.6-4.2
		c0.6-0.6,1.2-1.1,1.7-1.3c0.6-0.2,1-0.4,1.4-0.3c0.3,0,0.5,0.2,0.5,0.5s-0.2,0.7-0.7,1.2c-0.3,0.3-0.9,0.9-1.7,1.8
		c-0.8,0.9-1.8,1.9-3,3.1c-1.1,1.2-2.3,2.4-3.6,3.6c-1.3,1.2-2.5,2.4-3.7,3.5c-1.2,1.1-2.3,2-3.3,2.7c-1,0.7-1.8,1.1-2.4,1.2
		c-0.5,0.1-1-0.1-1.5-0.7c-0.5-0.5-0.9-1.3-1.2-2.2c-0.3-1-0.5-2.1-0.6-3.3c-0.1-1.3,0.1-2.6,0.5-4.1c0.3-1,0.9-2.4,1.8-4.4
		s2.1-4,3.4-6.2c1.3-2.2,2.7-4.5,4.3-6.9c1.5-2.4,3-4.5,4.5-6.4c1.5-1.9,2.8-3.5,4.1-4.7c1.2-1.2,2.2-1.9,3-1.9
		c0.8,0,1.6,0.3,2.2,0.8c0.7,0.6,1.2,1.3,1.6,2.1c0.4,0.8,0.6,1.7,0.7,2.6c0.1,0.9,0.1,1.7-0.1,2.3c-0.3,0.9-0.9,1.8-1.8,2.9
		c-1,1.1-2.1,2.2-3.4,3.4c-1.3,1.2-2.7,2.4-4.1,3.5c-1.5,1.2-2.8,2.3-4.1,3.2c-1.3,1-2.4,1.8-3.4,2.5c-1,0.7-1.6,1.2-1.8,1.5
		l-0.5,0.5c-1.3,2.3-2.3,4.3-3.1,6.1S120.5,48.8,120.7,49.5z M141.3,18.8c-0.3-0.3-0.9,0-1.8,0.8c-0.9,0.8-2,2-3.3,3.5
		c-1.3,1.5-2.6,3.3-4.1,5.3c-1.5,2-2.9,4-4.2,6.1c1.6-1.5,3.3-3.2,5.1-4.9c1.8-1.7,3.3-3.3,4.7-4.8c1.4-1.5,2.4-2.8,3.2-3.9
		C141.5,19.9,141.7,19.2,141.3,18.8z"/>
	<path d="M136,50.7c0.4,0.5,1.1,0.6,2.1,0.4s2.2-0.6,3.5-1.2c1.3-0.6,2.7-1.3,4.2-2.2c1.5-0.9,3-1.9,4.4-2.9c1.4-1,2.8-2,4-3
		c1.2-1,2.2-1.8,3-2.6c0.6-0.6,1.2-1.1,1.8-1.4c0.6-0.3,1-0.4,1.4-0.4c0.3,0,0.5,0.2,0.5,0.5c0,0.3-0.3,0.7-0.8,1.3
		c-1.8,1.8-3.7,3.6-5.7,5.4c-2,1.9-4,3.6-6,5.1c-2,1.5-3.9,2.8-5.6,3.8c-1.8,1-3.3,1.5-4.7,1.5c-0.6,0-1.3-0.1-2.1-0.4
		c-0.8-0.3-1.5-0.7-2.1-1.4c-0.6-0.6-1.2-1.4-1.6-2.4c-0.4-1-0.6-2.1-0.6-3.5c0-0.9,0.4-2,1.1-3.4s1.7-2.8,2.9-4.3s2.5-3,3.9-4.5
		c1.5-1.5,2.9-2.8,4.3-4c1.4-1.2,2.8-2.2,4-2.9c1.3-0.7,2.3-1.1,3.1-1.1c0.3,0,0.7,0.1,1.2,0.3c0.5,0.2,1,0.5,1.5,0.9
		c0.5,0.4,0.9,1,1.3,1.6c0.3,0.7,0.4,1.5,0.3,2.6c-0.1,1-0.6,2.2-1.4,3.3c-0.8,1.2-1.7,2.3-2.8,3.4c-1.1,1.1-2.2,2.1-3.3,3
		c-1.1,0.9-2.1,1.5-2.8,1.9c-1.3,0.8-2.6,1-3.8,0.7c-1.2-0.3-2.2-0.8-2.9-1.6c-1.2,1.7-2,3.2-2.6,4.6
		C135.4,49.1,135.4,50.1,136,50.7z M150.9,32.1c-0.4-0.2-1-0.1-1.8,0.3c-0.8,0.5-1.8,1.1-2.8,2c-1,0.9-2.1,2-3.3,3.2
		c-1.2,1.2-2.2,2.5-3.2,3.8c0.7,0.3,1.5,0.3,2.3,0c0.9-0.3,1.8-0.8,2.7-1.4c0.9-0.6,1.8-1.4,2.6-2.2c0.8-0.8,1.6-1.7,2.2-2.5
		c0.6-0.8,1-1.5,1.3-2.1C151.1,32.7,151.1,32.3,150.9,32.1z"/>
	<path d="M175.7,39.2c0.5-0.5,1-0.9,1.6-1.2c0.6-0.3,1.1-0.4,1.4-0.4c0.4,0,0.6,0.1,0.6,0.4c0,0.2-0.2,0.7-0.8,1.3
		c-0.4,0.4-1,1.1-1.8,2c-0.8,0.9-1.7,2-2.7,3.1c-1,1.2-2.1,2.4-3.3,3.6c-1.2,1.3-2.3,2.4-3.4,3.5c-1.1,1-2.2,1.9-3.2,2.6
		c-1,0.7-1.8,1-2.4,1c-0.6,0-1.1-0.3-1.5-0.8c-0.4-0.5-0.8-1.2-1.1-1.9s-0.5-1.5-0.6-2.3c-0.1-0.8-0.2-1.4-0.2-2
		c0-1,0.4-2.2,1.1-3.5c0.7-1.3,1.5-2.6,2.4-3.9c0.9-1.3,1.9-2.7,2.9-4.1c1-1.4,1.9-2.7,2.7-4c-1.1,0-1.8,0.1-2,0.2l-0.3,0.1
		c-0.2,0.4-1,1.4-2.2,3.2c-1.3,1.7-3.2,3.9-5.6,6.4c-1.3,1.3-2.4,2.2-3.3,2.8c-0.9,0.6-1.6,1-2.1,1.1s-0.7,0.1-0.8-0.2
		c0-0.2,0.2-0.6,0.6-1.1c3.1-3.1,5.5-5.8,7.1-8.2c1.7-2.4,2.5-4.1,2.6-5.2c-0.2-0.2-0.5-0.5-0.7-0.8c-0.2-0.3-0.4-0.7-0.5-1.1
		c-0.1-0.4-0.2-0.8-0.3-1.2c0-0.4,0-0.7,0.1-1.1c0.2-0.5,0.5-1,0.9-1.3c0.4-0.3,0.8-0.6,1.3-0.7c0.5-0.1,0.9-0.2,1.3-0.1
		c0.4,0.1,0.7,0.2,0.9,0.5c0.2,0.3,0.4,0.6,0.6,1c0.2,0.4,0.5,0.7,0.7,1.2c0.2,0.4,0.4,0.8,0.4,1.3c0.1,0.4,0.1,0.9-0.1,1.3
		c0.5-0.1,1-0.2,1.4-0.3c0.4-0.1,0.8-0.3,1.1-0.6c0.4-0.2,0.7-0.6,1.2-0.9c0.4-0.4,0.9-0.8,1.4-1.4c0.4-0.4,0.8-0.5,1.2-0.3
		c0.4,0.2,0.7,0.5,1,1c0.3,0.5,0.5,1,0.5,1.5c0.1,0.6,0,1-0.2,1.4c-0.2,0.4-0.7,1-1.5,2c-0.7,1-1.6,2.1-2.6,3.5
		c-1,1.3-2,2.8-3.1,4.2c-1.1,1.5-2.1,2.9-3,4.2c-0.9,1.3-1.6,2.5-2.1,3.6c-0.5,1-0.7,1.7-0.5,2.1c0.1,0.3,0.6,0.2,1.4-0.3
		c0.8-0.5,1.9-1.2,3.3-2.2c1.3-1,2.9-2.3,4.6-3.8C172.1,42.8,173.8,41.1,175.7,39.2z"/>
	<path d="M241.6,21.1c-0.1-0.2-0.4-0.6-0.8-1.2c-0.5-0.6-1.2-1.2-2.1-1.7c-1-0.5-2.2-0.8-3.7-1c-1.5-0.2-3.4,0.1-5.6,0.7
		c-1.8,0.5-3.6,1.5-5.6,2.7c-2,1.3-4,2.8-5.9,4.5c-2,1.7-3.9,3.6-5.8,5.7c-1.9,2.1-3.6,4.2-5.2,6.4c-1.6,2.2-2.9,4.3-4.1,6.5
		c-1.2,2.1-2,4.1-2.5,6c-0.5,1.9-0.7,3.5-0.5,5s0.9,2.6,2.1,3.4c1,0.7,2.4,1,3.9,0.8c1.6-0.2,3.3-0.6,5-1.3c1.7-0.7,3.5-1.6,5.2-2.7
		c1.7-1.1,3.3-2.2,4.6-3.4c1.4-1.2,2.4-2.3,3.3-3.3c0.8-1,1.2-1.9,1.2-2.4c0-0.3-0.4-0.4-1-0.5c-0.6-0.1-1.3-0.1-2.2,0
		c-0.9,0.1-1.8,0.2-2.8,0.4c-1,0.2-1.9,0.3-2.7,0.5c-0.5,0.1-1,0.1-1.4-0.1c-0.4-0.1-0.8-0.3-1-0.6c-0.2-0.3-0.3-0.6-0.2-1
		c0.1-0.4,0.4-0.7,0.9-1c0.3-0.2,1.1-0.5,2.2-0.9c1.2-0.4,2.5-0.8,4.1-1.3c1.6-0.5,3.3-0.9,5.1-1.4c1.8-0.5,3.6-0.9,5.2-1.3
		c1.7-0.4,3.2-0.7,4.5-0.9c1.3-0.2,2.3-0.3,3-0.2c0.8,0.1,1.6,0.4,2.5,1c0.8,0.6,1.5,1.2,2.1,1.8s0.8,1.2,0.9,1.7
		c0,0.5-0.3,0.7-1.2,0.6c-1.2-0.1-2.7-0.2-4.5-0.1s-3.6,0.2-5.4,0.4c-2.1,0.2-4.2,0.4-6.5,0.7c0.9,0.2,1.7,0.4,2.4,0.7
		c0.6,0.2,1.1,0.5,1.6,0.9c0.5,0.4,0.7,0.8,0.6,1.4c-0.1,0.8-0.5,1.7-1.2,2.7c-0.7,1-1.6,2.1-2.8,3.2c-1.1,1.1-2.4,2.2-3.8,3.3
		c-1.4,1.1-2.9,2.1-4.4,3c-1.5,0.9-3,1.7-4.6,2.4c-1.5,0.7-3,1.1-4.3,1.3c-0.7,0.1-1.6,0.1-2.7-0.1s-2.2-0.5-3.5-1
		c-1.2-0.5-2.4-1-3.6-1.8c-1.2-0.7-2.2-1.6-3.1-2.5c-0.9-1-1.6-2-2.1-3.2c-0.5-1.2-0.6-2.4-0.4-3.7c0.4-2.2,1.1-4.5,2.3-7
		c1.2-2.5,2.7-5,4.5-7.6c1.8-2.5,3.7-5,5.9-7.4c2.2-2.4,4.4-4.5,6.6-6.5s4.4-3.6,6.6-4.9c2.1-1.3,4.1-2.2,5.8-2.6
		c2.5-0.6,5-0.6,7.5-0.1c2.5,0.5,4.7,1.3,6.7,2.2c2,1,3.6,2.1,4.8,3.2c1.2,1.2,1.9,2.2,2,2.9c0,0.4-0.2,0.6-0.7,0.7
		c-0.5,0-1.1,0-1.7-0.2c-0.7-0.2-1.3-0.5-1.9-0.9C242.2,21.9,241.8,21.5,241.6,21.1z"/>
	<path d="M268.1,36.8c-1.2,1.9-2.3,3.6-3.3,5.1c-1,1.5-1.8,2.8-2.4,3.9c-0.6,1.1-1.1,1.9-1.3,2.6s-0.2,1,0.1,1.2
		c0.3,0.2,1-0.1,1.9-0.9c1-0.8,2.1-1.8,3.3-2.9c1.2-1.2,2.4-2.3,3.6-3.6c1.2-1.2,2.1-2.2,2.9-2.9c0.6-0.6,1.2-1.1,1.8-1.4
		c0.6-0.4,1.1-0.6,1.5-0.6c0.4,0,0.6,0.1,0.5,0.4c0,0.3-0.4,0.8-1.1,1.6c-1,1-2.2,2.3-3.6,4c-1.4,1.7-2.8,3.3-4.2,5
		c-1.4,1.7-2.6,3.1-3.8,4.4c-1.1,1.2-2,1.9-2.4,2.1c-0.7,0.2-1.3,0.2-1.9,0c-0.6-0.2-1.1-0.6-1.5-1.1c-0.4-0.5-0.7-1-0.9-1.7
		c-0.2-0.7-0.2-1.3-0.1-2c0-0.5,0.2-1.2,0.5-1.9c0.3-0.7,0.7-1.5,1.1-2.2s0.8-1.5,1.2-2.1c0.4-0.7,0.7-1.2,0.9-1.5
		c-0.2,0.3-0.6,0.8-1.2,1.6c-0.6,0.7-1.3,1.6-2.1,2.5c-0.8,1-1.8,2-2.8,3c-1,1-2,2-3,2.8c-1,0.8-1.9,1.5-2.9,2.1
		c-0.9,0.6-1.7,0.8-2.3,0.8c-0.7,0-1.4-0.3-2.1-0.8c-0.7-0.6-1.2-1.3-1.6-2.1c-0.4-0.8-0.7-1.7-0.9-2.7c-0.2-1-0.2-1.8,0.1-2.5
		c0.2-0.8,0.8-1.9,1.8-3.3c1-1.4,2.1-2.9,3.5-4.5s2.8-3.2,4.5-4.9c1.6-1.6,3.2-3.1,4.7-4.4c1.5-1.3,3-2.3,4.3-3
		c1.3-0.7,2.4-1,3.2-0.8c0.3,0.1,0.7,0.4,1.1,0.8c0.4,0.5,0.8,1,1.1,1.7c0.3,0.7,0.5,1.5,0.6,2.3c0.1,0.9,0,1.7-0.3,2.5
		c0.6,0.4,1.1,0.9,1.5,1.7C268.5,35.6,268.5,36.3,268.1,36.8z M264.4,30.8c-0.5-0.3-1.4-0.1-2.6,0.6c-1.2,0.7-2.5,1.7-3.9,3
		c-1.5,1.3-2.9,2.7-4.5,4.4c-1.5,1.6-2.9,3.2-4,4.7c-1.2,1.5-2.1,2.8-2.7,4c-0.6,1.2-0.8,2-0.4,2.4c0.3,0.4,1.1,0.3,2.2-0.4
		c1.2-0.7,2.5-1.7,4.1-3.1c1.6-1.4,3.3-3.1,5.1-5c1.8-1.9,3.6-4,5.3-6.1c0.6-1.1,1-2.1,1.3-3C264.6,31.5,264.6,31,264.4,30.8z"/>
	<path d="M284.2,31.3c-1.5,2-3,4.2-4.7,6.5c-1.6,2.4-3.2,4.8-4.8,7.2c-1.6,2.4-3.2,4.9-4.6,7.3c-1.5,2.4-2.8,4.6-4,6.7
		c-1.2,2.1-2.2,3.9-2.9,5.4c-0.8,1.6-1.3,2.7-1.5,3.5c-0.1,0.5-0.4,0.7-0.9,0.6s-0.9-0.5-1.3-1.1c-0.4-0.6-0.7-1.3-0.9-2.1
		c-0.2-0.8-0.1-1.7,0.3-2.6c0.4-0.8,1-2,1.9-3.5c0.8-1.5,1.8-3.2,3-5.1c1.2-1.9,2.5-3.9,3.8-6.1s2.8-4.3,4.3-6.5
		c1.5-2.2,3-4.3,4.5-6.3c1.5-2,3-3.9,4.4-5.5c0.3-0.4,0.7-0.6,1.2-0.6c0.5,0,1,0.1,1.4,0.2c0.4,0.2,0.7,0.4,0.9,0.8
		C284.5,30.5,284.4,30.8,284.2,31.3z M286.4,25c-0.6-0.1-1-0.4-1.2-0.9c-0.1-0.5-0.1-1,0-1.6c0.2-0.6,0.5-1.2,0.9-1.8
		c0.5-0.6,1-1.2,1.6-1.6c0.6-0.5,1.2-0.8,1.9-1c0.7-0.2,1.3-0.2,2,0.1c1.3,0.5,1.9,1.2,1.9,2c0,0.8-0.4,1.7-1.1,2.4
		c-0.7,0.8-1.7,1.4-2.8,1.9C288.4,25.1,287.4,25.2,286.4,25z"/>
	<path d="M317.1,14.7c0.4-0.5,0.7-0.6,1.2-0.4s0.7,0.6,1,1.1c0.3,0.5,0.4,1.1,0.5,1.7c0,0.6-0.1,1.1-0.4,1.5c-3.1,3.8-6,7.4-8.7,11
		c-2.7,3.6-5,6.8-7,9.7c-2,2.9-3.5,5.3-4.6,7.2c-1.1,1.9-1.6,3.1-1.5,3.5c0,0.2,0.3,0.2,0.8-0.1c0.5-0.3,1.1-0.8,1.9-1.4
		c0.8-0.6,1.6-1.4,2.5-2.2c0.9-0.9,1.8-1.7,2.8-2.6c0.9-0.9,1.8-1.7,2.5-2.5c0.8-0.8,1.4-1.4,1.9-1.9c0.6-0.6,1.2-1.1,1.9-1.4
		c0.7-0.4,1.2-0.6,1.6-0.6c0.4,0,0.6,0.1,0.5,0.4c0,0.3-0.4,0.8-1.1,1.6c-1,1-2.2,2.3-3.6,4c-1.4,1.7-2.8,3.3-4.1,5
		c-1.4,1.7-2.6,3.1-3.8,4.4c-1.2,1.2-2,1.9-2.4,2.1c-0.7,0.2-1.3,0.2-1.9,0c-0.6-0.2-1.1-0.6-1.5-1.1c-0.4-0.5-0.7-1-0.9-1.7
		s-0.3-1.3-0.2-2c0.1-0.5,0.3-1.2,0.6-1.9s0.7-1.5,1.1-2.2c0.4-0.7,0.8-1.5,1.2-2.1c0.4-0.7,0.7-1.2,0.9-1.5
		c-0.2,0.3-0.6,0.8-1.1,1.6c-0.5,0.7-1.1,1.6-1.8,2.5c-0.7,1-1.5,2-2.3,3c-0.8,1-1.6,2-2.5,2.8c-0.8,0.8-1.7,1.5-2.4,2.1
		c-0.8,0.6-1.5,0.8-2.2,0.8c-0.7,0-1.5-0.3-2.2-0.8c-0.7-0.5-1.4-1.2-1.9-2c-0.5-0.8-0.9-1.6-1.2-2.5c-0.2-0.9-0.3-1.7,0-2.4
		c0.2-0.8,0.7-1.8,1.6-3.2c0.8-1.4,1.8-2.9,3-4.5s2.4-3.2,3.9-4.9c1.4-1.7,2.9-3.1,4.4-4.4c1.5-1.3,2.9-2.3,4.4-3.1
		c1.4-0.8,2.7-1.1,3.9-0.9c0.5,0.1,1,0.5,1.6,1.3c0.6,0.8,1.1,1.7,1.3,2.8c2.4-3,4.8-6,6.9-8.7C313.7,18.8,315.6,16.5,317.1,14.7z
		 M301.4,30.4c-0.5-0.1-1.4,0.2-2.5,1c-1.1,0.8-2.4,1.9-3.8,3.2c-1.4,1.3-2.8,2.8-4.2,4.5c-1.4,1.7-2.6,3.2-3.7,4.8
		c-1.1,1.5-1.9,2.9-2.4,4c-0.5,1.2-0.6,2-0.2,2.4c0.5,0.5,1.3,0.3,2.4-0.5c1.2-0.8,2.5-2,4.1-3.6s3.3-3.5,5.2-5.8
		c1.9-2.2,3.8-4.6,5.8-7c0.2-0.8,0.3-1.4,0.2-1.9S302,30.6,301.4,30.4z"/>
	<path d="M326.8,28.7c1.2-0.5,2.1-0.4,2.9,0.3c0.7,0.7,1.2,1.5,1.4,2.5c3-0.1,5.4-0.4,7-0.6c1.6-0.3,2.9-0.7,3.8-1.1
		c0.5-0.2,0.9-0.3,1.3-0.4c0.4-0.1,0.6,0,0.7,0.1c0.1,0.1,0.1,0.4-0.2,0.7c-0.2,0.3-0.7,0.8-1.6,1.4c-0.6,0.5-1.3,0.9-2.2,1.2
		c-0.9,0.4-1.8,0.7-2.8,1c-1,0.3-2,0.5-3.1,0.7c-1.1,0.2-2.1,0.3-3.1,0.3c-0.3,1.4-0.8,2.9-1.5,4.4c-0.7,1.5-1.5,3.1-2.5,4.6
		c-1,1.5-2,2.9-3.2,4.3c-1.1,1.4-2.3,2.6-3.5,3.6c-1.2,1-2.3,1.9-3.5,2.5c-1.1,0.6-2.2,0.9-3.1,0.9c-1.1,0-2.1-0.3-3-0.9
		c-0.8-0.6-1.5-1.4-2-2.3c-0.5-1-0.8-2-1-3.2s-0.1-2.3,0.1-3.4c0.3-1.5,0.9-3.2,2-5.1c1.1-1.9,2.3-3.7,3.6-5.5
		c1.4-1.7,2.8-3.3,4.2-4.6c1.4-1.3,2.7-2.2,3.7-2.5c0.5-0.2,1.1-0.3,1.5-0.5c0.5-0.1,0.9-0.2,1.4-0.1c0.5,0,0.9,0.2,1.3,0.5
		C326.1,27.6,326.4,28,326.8,28.7L326.8,28.7z M310.7,50.6c0.4,0.7,1,0.9,1.8,0.7c0.8-0.2,1.7-0.7,2.8-1.5c1-0.8,2.2-1.8,3.4-3.1
		c1.2-1.2,2.4-2.6,3.5-4s2.2-2.9,3.1-4.3c0.9-1.5,1.6-2.8,2.1-4c-1.5-0.3-2.4-0.9-2.8-1.6c-0.4-0.7-0.4-1.4,0-2.1
		c-1,0.5-2,1.3-3.2,2.3c-1.2,1-2.3,2.2-3.5,3.4s-2.2,2.6-3.3,3.9c-1,1.4-1.9,2.7-2.6,4c-0.7,1.3-1.2,2.5-1.5,3.6
		C310.3,49,310.3,49.9,310.7,50.6z"/>
	<path d="M347.9,33.4c0.6-0.8,0.9-1.5,0.8-2.1c0-0.7-0.4-0.9-1-0.8c-1,0.2-2.1,0.8-3.2,1.8c-1.1,1-2.2,2.2-3.3,3.5
		c-1,1.3-2,2.6-2.8,4s-1.4,2.4-1.8,3.2c-0.6,1.5-1,2.8-1.1,4c-0.1,1.2,0.1,2.2,0.6,2.8c0.6,0.7,1.6,0.8,3.1,0.3
		c1.5-0.5,3.1-1.4,4.9-2.5c1.8-1.2,3.6-2.5,5.5-4c1.9-1.5,3.5-3,4.8-4.3c0.8-0.8,1.5-1.3,2.1-1.7c0.7-0.4,1.2-0.5,1.5-0.5
		c0.4,0,0.5,0.2,0.4,0.6c-0.1,0.4-0.5,0.9-1.2,1.7c-1.3,1.3-2.8,2.8-4.6,4.6c-1.7,1.7-3.5,3.4-5.3,5c-1.8,1.6-3.4,3-5,4.1
		c-1.6,1.2-2.9,1.9-3.9,2s-2,0-3-0.5c-1-0.5-1.8-1.2-2.5-2.1c-0.7-0.9-1.3-2.1-1.7-3.4c-0.4-1.3-0.5-2.7-0.3-4.1
		c0.1-1,0.5-2.1,1.1-3.4c0.6-1.2,1.4-2.5,2.3-3.8c0.9-1.3,2-2.6,3.1-3.9c1.2-1.3,2.3-2.4,3.5-3.5s2.4-1.9,3.6-2.7
		c1.2-0.7,2.2-1.2,3.1-1.4c0.4-0.1,0.9-0.1,1.4,0c0.5,0.1,1.1,0.3,1.6,0.5c0.5,0.3,0.9,0.7,1.3,1.2c0.3,0.5,0.5,1.1,0.5,1.8
		c0,0.9-0.3,2-0.8,3.4c-0.6,1.4-1.2,2.7-2,3.9c-0.7,1.3-1.5,2.4-2.2,3.3c-0.7,0.9-1.2,1.4-1.6,1.5c-0.3,0-0.6-0.1-0.9-0.4
		c-0.3-0.3-0.5-0.7-0.7-1.2c-0.2-0.5-0.3-1-0.4-1.5c0-0.5,0-0.9,0.2-1.3c0.2-0.3,0.4-0.7,0.7-1c0.3-0.4,0.7-0.7,1-1.1
		c0.4-0.4,0.7-0.7,1-1C347.4,34,347.7,33.7,347.9,33.4z"/>
	<path d="M354.5,50.7c0.4,0.5,1.1,0.6,2.1,0.4c1-0.2,2.2-0.6,3.5-1.2s2.7-1.3,4.2-2.2c1.5-0.9,3-1.9,4.4-2.9c1.4-1,2.8-2,4-3
		c1.2-1,2.2-1.8,3-2.6c0.6-0.6,1.2-1.1,1.8-1.4c0.6-0.3,1-0.4,1.4-0.4c0.3,0,0.5,0.2,0.5,0.5c0,0.3-0.3,0.7-0.8,1.3
		c-1.8,1.8-3.7,3.6-5.7,5.4c-2,1.9-4,3.6-6,5.1c-2,1.5-3.9,2.8-5.6,3.8c-1.8,1-3.3,1.5-4.7,1.5c-0.6,0-1.3-0.1-2.1-0.4
		c-0.8-0.3-1.5-0.7-2.1-1.4c-0.6-0.6-1.2-1.4-1.6-2.4s-0.6-2.1-0.6-3.5c0-0.9,0.4-2,1.1-3.4s1.7-2.8,2.9-4.3c1.2-1.5,2.5-3,3.9-4.5
		c1.5-1.5,2.9-2.8,4.3-4c1.4-1.2,2.8-2.2,4-2.9c1.3-0.7,2.3-1.1,3.1-1.1c0.3,0,0.7,0.1,1.2,0.3c0.5,0.2,1,0.5,1.5,0.9
		c0.5,0.4,0.9,1,1.3,1.6s0.4,1.5,0.3,2.6c-0.1,1-0.6,2.2-1.4,3.3c-0.8,1.2-1.7,2.3-2.8,3.4s-2.2,2.1-3.3,3c-1.1,0.9-2.1,1.5-2.8,1.9
		c-1.3,0.8-2.6,1-3.8,0.7c-1.2-0.3-2.2-0.8-2.9-1.6c-1.2,1.7-2,3.2-2.6,4.6C353.9,49.1,353.9,50.1,354.5,50.7z M369.4,32.1
		c-0.4-0.2-1-0.1-1.8,0.3c-0.8,0.5-1.8,1.1-2.8,2c-1,0.9-2.1,2-3.3,3.2c-1.2,1.2-2.2,2.5-3.2,3.8c0.7,0.3,1.5,0.3,2.3,0
		c0.9-0.3,1.8-0.8,2.7-1.4c0.9-0.6,1.8-1.4,2.6-2.2s1.6-1.7,2.2-2.5c0.6-0.8,1-1.5,1.3-2.1C369.6,32.7,369.7,32.3,369.4,32.1z"/>
	<path d="M400.6,39.2c0.7-0.7,1.3-1.2,1.9-1.5c0.6-0.3,1.1-0.5,1.5-0.5c0.4,0,0.5,0.2,0.5,0.5c0,0.3-0.4,0.8-1,1.5
		c-1.3,1.3-2.7,2.8-4,4.6c-1.4,1.7-2.7,3.4-3.9,5.1c-1.2,1.6-2.4,3-3.4,4.2c-1,1.2-1.9,1.8-2.4,1.9c-0.6,0.1-1.3,0.1-2-0.2
		c-0.7-0.2-1.4-0.7-2-1.2c-0.7-0.6-1.3-1.3-1.8-2.1c-0.5-0.9-1-1.9-1.2-3.1c-0.3-1.2-0.4-2.1-0.5-2.8c-0.1-0.7-0.1-1.2,0-1.6
		c0.1-0.4,0.3-0.6,0.5-0.8c0.2-0.2,0.5-0.4,0.8-0.5c2.7-1.7,5.2-3.7,7.6-5.9c2.4-2.2,4.3-4.8,5.8-7.7c-1.2,0.8-2.6,1.8-4.1,3
		c-1.5,1.2-3.1,2.6-4.7,4c-1.6,1.5-3.2,3-4.8,4.7c-1.6,1.7-3.1,3.3-4.6,5c-1.4,1.7-2.7,3.2-3.9,4.8c-1.2,1.5-2.2,2.9-3,4
		c-0.2,0.4-0.5,0.5-0.9,0.4c-0.4-0.1-0.7-0.3-1.1-0.6c-0.3-0.3-0.6-0.7-0.9-1.2c-0.2-0.5-0.3-1-0.2-1.5c0-0.2,0.4-0.8,1-1.9
		c0.6-1.1,1.4-2.5,2.3-4.1c1-1.7,2-3.5,3.3-5.5s2.5-4.1,3.8-6.3c1.3-2.2,2.6-4.3,3.9-6.4c1.3-2.1,2.5-4,3.7-5.7
		c1.1-1.7,2.1-3.1,3-4.3s1.5-1.9,1.9-2.2c0.4-0.3,0.9-0.5,1.5-0.4c0.6,0,1.2,0.2,1.6,0.4c0.5,0.2,0.8,0.6,1,1c0.2,0.4,0,0.8-0.4,1.1
		c-0.3,0.3-0.9,1-1.8,2c-0.9,1.1-1.9,2.4-3,4c-1.1,1.6-2.4,3.3-3.7,5.2c-1.3,1.9-2.6,3.8-3.8,5.6c-1.2,1.9-2.3,3.6-3.4,5.2
		c-1,1.6-1.8,3-2.4,4c0.4-0.4,1-1.1,1.8-2c0.8-0.9,1.7-1.9,2.8-3.1c1-1.1,2.2-2.3,3.3-3.5c1.2-1.2,2.3-2.4,3.4-3.5
		c1.1-1.1,2.1-2,3.1-2.8c1-0.8,1.7-1.3,2.3-1.6c0.9-0.4,1.8-0.5,2.6-0.2c0.8,0.3,1.4,0.7,1.6,1.2c1.3,0.2,1.9,0.7,2,1.5
		c0.1,0.8-0.2,1.9-0.9,3.1c-0.7,1.2-1.6,2.5-2.8,3.9c-1.2,1.4-2.5,2.7-3.9,4c-1.4,1.2-2.7,2.4-4.1,3.3c-1.3,1-2.4,1.6-3.3,1.9
		c0,0.4,0.1,0.8,0.2,1.3c0.1,0.5,0.3,0.9,0.5,1.3c0.2,0.4,0.4,0.8,0.7,1.1c0.2,0.3,0.5,0.5,0.8,0.5c0.4,0.1,1.2-0.3,2.4-1.2
		c1.2-0.9,2.5-1.9,3.8-3.2c1.4-1.2,2.7-2.5,4-3.7C398.9,40.9,399.9,39.9,400.6,39.2z"/>
</g>
</svg>
